<?xml version="1.0" encoding="UTF-8" standalone="no"?>
<!DOCTYPE svg PUBLIC "-//W3C//DTD SVG 1.1//EN" "http://www.w3.org/Graphics/SVG/1.1/DTD/svg11.dtd">
<svg width="100%" height="100%" viewBox="0 0 600 800" version="1.1" xmlns="http://www.w3.org/2000/svg" xmlns:xlink="http://www.w3.org/1999/xlink" xml:space="preserve" style="fill-rule:evenodd;clip-rule:evenodd;stroke-linecap:round;stroke-linejoin:round;stroke-miterlimit:1.41421;">
    <g id="Avatar" transform="matrix(1.13713,0,0,1.13713,-120.453,21.3627)">
        <g id="Ears" transform="matrix(1,0,0,1,3.11587,1.18808)">
            <g id="Right-Ear"   transform="matrix(0.989777,0,0,0.869052,-7.27545,44.1594)">
                <path d="M176.422,350.624C125.759,306.659 136.54,380.734 152.088,431.308C168.068,483.289 186.446,483.863 191.179,452.287C195.912,420.71 212.037,381.53 176.422,350.624Z" style="fill:rgb(253,202,162);stroke:black;stroke-width:13.81px;"/>
            </g>
            <g id="Left-Ear"   transform="matrix(-0.989777,0,0,0.869052,740.543,44.1594)">
                <path d="M176.422,350.624C125.759,306.659 136.54,380.734 152.088,431.308C168.068,483.289 186.446,483.863 191.179,452.287C195.912,420.71 212.037,381.53 176.422,350.624Z" style="fill:rgb(253,202,162);stroke:black;stroke-width:13.81px;"/>
            </g>
        </g>
        <path id="Head" d="M175,436C93.72,90.369 322.259,64.997 371,64.872C513.974,64.505 622.587,142.163 567,436C547.881,537.065 433.814,637.896 363.055,637.849C293.496,641.379 198.546,536.126 175,436Z" style="fill:rgb(253,202,162);stroke:url(#_Radial1);stroke-width:12.87px;"/>
        <g id="Facial-Hair"  >
            <g id="Goatee" transform="matrix(1.03368,-0.0500431,0.0483557,0.99883,-38.9214,23.7673)">
                <path d="M274.642,554.209C274.642,554.209 287.527,613.373 370.945,613.373C441.119,613.373 466.86,552.425 466.86,552.425C466.86,552.425 447.029,634.435 424.19,645.548C390.932,661.73 358.945,660.714 317.555,645.548C285.416,615.958 274.642,554.209 274.642,554.209Z" style="fill:rgb(152,67,0);stroke:black;stroke-width:10px;"/>
            </g>
            <g id="Soul-Patch"   transform="matrix(0.853943,-0.0496573,0.0580525,0.998314,26.5332,19.4202)">
                <path d="M350.262,581.224C357.259,571.753 383.761,571.323 394.781,580.308C398.332,589.489 372.157,597.211 372.157,597.211C372.157,597.211 345.021,588.318 350.262,581.224Z" style="fill:rgb(152,67,0);stroke:black;stroke-width:4px;"/>
            </g>
            <g id="Mustache" transform="matrix(0.944131,0,0,1.02298,20.1423,-14.7463)">
                <path d="M274.642,517.856C294.287,500.116 412.265,477.722 466.86,514.34C407.953,507.263 318.248,513.245 274.642,517.856Z" style="fill:rgb(152,67,0);stroke:black;stroke-width:4px;"/>
            </g>
        </g>
        <path id="Hair" d="M157.683,337.229C157.683,337.229 250.527,192.121 248.392,136.227C292.293,178.767 341.496,150.812 369.75,183.511C395.617,147.633 447.677,185.945 491.11,141.279C512.697,195.761 543.979,267.586 581.817,337.229C582.8,274.359 585.677,102.423 446.537,64.87C390.902,46.077 369.75,4.257 369.75,4.257C369.75,4.257 337.215,46.476 297.996,64.87C266.623,79.585 132.051,94.898 157.683,337.229Z" style="fill:rgb(152,67,0);stroke:black;stroke-width:12.87px;"/>
        <g id="Eyes" transform="matrix(1,0,0,1,-11.1533,1.28695)">
            <g id="Lenses" transform="matrix(0.972294,0,0,0.972294,-12.8759,-62.031)">
                <path d="M378.706,416.109C378.706,402.541 367.707,391.541 354.138,391.541L232.75,391.541C219.181,391.541 208.181,402.541 208.181,416.109L208.181,465.246C208.181,478.815 219.181,489.814 232.75,489.814L354.138,489.814C367.707,489.814 378.706,478.815 378.706,465.246L378.706,416.109ZM432.23,415.564C432.23,401.996 443.23,390.996 456.799,390.996L578.187,390.996C591.756,390.996 602.755,401.996 602.755,415.564L602.755,464.701C602.755,478.27 591.756,489.269 578.187,489.269L456.799,489.269C443.23,489.269 432.23,478.27 432.23,464.701L432.23,415.564Z" style="fill:white;stroke:black;stroke-width:6.11px;"/>
            </g>
            <g id="Frames" transform="matrix(0.999066,0,0,0.996582,-23.7184,-62.8712)">
                <path d="M388.928,424.04L388.928,454.181C388.928,470.941 373.119,484.528 357.319,484.528L246.005,484.502C230.205,484.502 198.865,462.438 198.865,445.677L198.275,407.935C198.275,391.175 215.381,377.696 231.181,377.696L341.362,375.971C349.756,375.971 362.655,380.262 373.641,387.276L436.359,387.276C447.345,380.262 460.244,375.971 468.638,375.971L578.819,377.696C594.619,377.696 611.725,391.175 611.725,407.935L611.135,445.677C611.135,462.438 579.795,484.502 563.995,484.502L452.681,484.528C436.881,484.528 421.072,470.941 421.072,454.181L421.072,423.138C412.958,421.508 397.49,421.436 388.928,424.04ZM433.678,412.037C433.678,397.886 459.444,385.048 473.596,385.048L572.285,386.504C586.437,386.504 590.114,397.886 590.114,412.037L589.585,443.907C589.585,458.059 573.158,476.69 559.006,476.69L459.303,476.711C445.151,476.711 433.678,465.239 433.678,451.087L433.678,412.037ZM376.322,412.037C376.322,397.886 350.556,385.048 336.404,385.048L237.715,386.504C223.563,386.504 219.886,397.886 219.886,412.037L220.415,443.907C220.415,458.059 236.842,476.69 250.994,476.69L350.697,476.711C364.849,476.711 376.322,465.239 376.322,451.087L376.322,412.037ZM421.072,411.416L421.072,407.935C421.072,404.399 422.486,400.933 424.841,397.704L385.159,397.704C387.514,400.933 388.928,404.399 388.928,407.935L388.928,411.378C396.305,407.069 413.521,406.764 421.072,411.416Z" style="stroke:black;stroke-width:5.95px;"/>
            </g>
            <g id="EyeDots" transform="matrix(1,0,0,1,-1.04641,0)">
                <g transform="matrix(0.972294,0,0,0.972294,13.8743,-63.8816)">
                    <path d="M299.831,430.91C299.831,427.037 296.686,423.892 292.812,423.892L283.222,423.892C279.348,423.892 276.203,427.037 276.203,430.91L276.203,453.162C276.203,457.035 279.348,460.18 283.222,460.18L292.812,460.18C296.686,460.18 299.831,457.035 299.831,453.162L299.831,430.91Z" style="fill:black;"/>
                </g>
                <g transform="matrix(0.972294,0,0,0.972294,189.95,-63.8816)">
                    <path d="M299.831,430.91C299.831,427.037 296.686,423.892 292.812,423.892L283.222,423.892C279.348,423.892 276.203,427.037 276.203,430.91L276.203,453.162C276.203,457.035 279.348,460.18 283.222,460.18L292.812,460.18C296.686,460.18 299.831,457.035 299.831,453.162L299.831,430.91Z" style="fill:black;"/>
                </g>
            </g>
            <g id="EyeDotsBlink" transform="matrix(1,0,0,0.270043,-1.04641,268.098)">
                <g transform="matrix(0.972294,0,0,0.972294,13.8743,-63.8816)">
                    <path d="M299.831,434.672C299.831,428.722 298.526,423.892 296.92,423.892L279.115,423.892C277.508,423.892 276.203,428.722 276.203,434.672L276.203,449.401C276.203,455.35 277.508,460.18 279.115,460.18L296.92,460.18C298.526,460.18 299.831,455.35 299.831,449.401L299.831,434.672Z" style="fill:black;"/>
                </g>
                <g transform="matrix(0.972294,0,0,0.972294,189.95,-63.8816)">
                    <path d="M299.831,434.672C299.831,428.722 298.526,423.892 296.92,423.892L279.115,423.892C277.508,423.892 276.203,428.722 276.203,434.672L276.203,449.401C276.203,455.35 277.508,460.18 279.115,460.18L296.92,460.18C298.526,460.18 299.831,455.35 299.831,449.401L299.831,434.672Z" style="fill:black;"/>
                </g>
            </g>
            
        </g>
        <g id="Brows" transform="matrix(1,0,0,1,1.77636e-15,-34.0303)">
                <g id="Left-Brow"   transform="matrix(1,0,0,1,21.7454,-8.30535)">
                    <path d="M398.278,344.612C475.405,324.883 506.15,348.088 506.15,348.088C506.15,348.088 504.67,332.309 432.702,328.505C387.994,326.141 389.825,346.774 398.278,344.612Z" style="stroke:black;stroke-width:12.87px;"/>
                </g>
                <g id="Right-Brow"   transform="matrix(-0.992993,0.118175,0.118175,0.992993,692.237,-59.094)">
                    <path d="M398.278,344.612C475.405,324.883 506.15,348.088 506.15,348.088C506.15,348.088 504.67,332.309 432.702,328.505C387.994,326.141 389.825,346.774 398.278,344.612Z" style="stroke:black;stroke-width:12.87px;"/>
                </g>
            </g>
        <g id="Nose" transform="matrix(1,0,0,1,0,-4)">
            <g id="Nose-Bottom"   transform="matrix(1.07424,0,0,1.94793,0.855541,-456.841)">
                <path d="M303.332,477.274C317.071,482.384 322.715,475.273 326.269,477.274C333.363,481.267 350.397,482.18 360.056,477.274C365.225,474.648 377.57,483.319 383.468,477.274" style="fill:none;stroke:black;stroke-width:8.18px;"/>
            </g>
            <g id="Nose-Top"   transform="matrix(0.974616,-0.223883,0.223883,0.974616,-98.2246,83.6672)">
                <path d="M348.766,442.867C356.944,436.205 360.319,435.609 369.334,435.12" style="fill:none;stroke:black;stroke-width:12.87px;"/>
            </g>
        </g>
        <g id="Smirk" transform="matrix(1,0,0,1,-2.34043,-1.68082)">
            <path d="M437.695,473.299C454.924,499.71 471.573,496.908 473.691,506.383" style="fill:none;stroke:black;stroke-width:12.87px;"/>
        </g>
        <g id="Lips">
            <g id="Bottom-Lip"   transform="matrix(1,0,0,1,0,-10.1137)">
                <path d="M347.766,569.235C379.393,572.569 394.792,568.249 409.587,562.937" style="fill:none;stroke:black;stroke-width:12.87px;"/>
            </g>
            <g id="Top-Lip"   transform="matrix(0.839292,0,0,1,57.79,14.1812)">
                <path d="M283.739,521.477C305.772,524.575 366.213,534.875 428.353,521.159C443.079,517.908 462.408,508.719 462.408,508.719" style="fill:none;stroke:black;stroke-width:13.94px;"/>
            </g>
        </g>
    </g>
    <defs>
        <radialGradient id="_Radial1" cx="0" cy="0" r="1" gradientUnits="userSpaceOnUse" gradientTransform="matrix(212.067,0,0,212.067,369.75,351.403)"><stop offset="0" style="stop-color:white;stop-opacity:1"/><stop offset="1" style="stop-color:black;stop-opacity:1"/></radialGradient>
    </defs>
</svg>
